<?xml version="1.0" encoding="UTF-8"?>
<svg xmlns="http://www.w3.org/2000/svg" xmlns:xlink="http://www.w3.org/1999/xlink" version="1.1" id="LOGO" x="0px" y="0px" viewBox="0 0 419.5 297.6" style="enable-background:new 0 0 419.5 297.6;" xml:space="preserve">
<style type="text/css">
	.st0{fill:#FF4040;}
</style>
<g>
	<g>
		<g>
			<path class="st0" d="M62.2,158.3c0,11-7.5,17.8-14.5,18.4c-1.3,0.1-6.1-1-7.1-2.7c-0.7-1.1-0.8-0.7-0.8,1.1c0,5.5,0,13.1,0,22.4     c0,0.9,1.2,0.7-6.8,1.4c-6.8,0.6-7.3,0.6-7.3-0.3c0-26.8,0-46.4,0-69.2c0-1.4,1.4-1.1,6.1-1.5c6.8-0.6,8.1-1.4,8.1,1.6     c0,1.8,0.1,2.8,0.8,1.6c1-2,3.9-4.3,7.1-4.6c7-0.6,14.5,2.8,14.5,15.9C62.2,148.5,62.2,149.7,62.2,158.3z M47,149.4     c0-3.6,0.6-7.6-3.1-7.3c-3.7,0.3-3.1,4.2-3.1,7.8c0,2.1,0,0.6,0,4.6c0,3.6-0.5,7.6,3.1,7.3c3.8-0.3,3.1-4.2,3.1-7.8     C47,150.5,47,152.7,47,149.4z"></path>
			<path class="st0" d="M74.9,174.4c-7.5,0.7-7.5,0.6-7.5-0.9c0-26.3,0-21.7,0-46.8c0-1.9,0.1-1.9,7.5-2.5c8.2-0.7,8.2-0.6,8.2,1.3     c0,8.6,0,19.3,0,46.4C83.1,173.6,83,173.7,74.9,174.4z"></path>
			<path class="st0" d="M106.6,171.6c-10.6,0.9-18.3-5.2-18.3-15.6c0-15.6,0-0.3,0-15.9c0-10.4,7.7-17.8,18.3-18.8     c11-1,18.3,4.8,18.3,15.6c0,1.7-0.3,1.7-8.9,2.5c-6.4,0.6-6.3,0.3-6.3-0.9c0-1.9-0.4-4.1-3.1-3.9c-3.8,0.3-3.1,4.2-3.1,7.8     c0,3,0,5.2,0,8.8c0,3.6-0.6,7.6,3.1,7.3c2.5-0.2,3.1-2.2,3.1-4.5c0-1.4-0.4-2.1,7.2-2.7c7.5-0.7,7.9-0.5,7.9,1.6     C124.9,163.6,117.6,170.6,106.6,171.6z"></path>
			<path class="st0" d="M145.3,154.8c0,5.9,0,5.4,0,11.5c0,1.8-5,2.2-8.2,2.5c-2.7,0.2-7.5,0.6-7.5-0.9c0-26.3,0-44.9,0-70     c0-1.4,5.9-2,7.5-2.1c2-0.2,8.2-0.7,8.2,0.9c0,13,0,24.6,0,36.5c0,1.3,0.3,2.1,0.7,1.5c0.4-0.6,0.8-1.3,1.2-2.3     c1.6-5.6,2.3-8.4,3.9-13.8c0.2-0.8,3.6-1.4,6-1.6c2.5-0.2,10-0.9,9.6,0.2c-2.9,7.1-4.3,10.7-7.3,17.6c-0.4,1-0.9,2.1-0.9,2.8     c0,0.5,0.2,1.9,0.6,2.8c4.1,9.9,6,15.2,9.4,24.6c0.2,0.6-0.2,1.3-8.9,2c-3.3,0.3-6,0.3-6.4-0.9c-2.6-7.4-1.8-5.1-4.1-12.2     c-0.7-2.3-1.5-2.2-2.1-1.6C146.3,152.9,145.3,153.5,145.3,154.8z"></path>
		</g>
		<g>
			<path class="st0" d="M267.8,111c0,1.8,0.1,2.2,0.8,1c1.1-2,6.3-3.9,7.7-4c7-0.6,14.1,2.9,14.1,16c0,6.1,0,9.9,0,16     c0,13.1-7,17.9-14.1,18.5c-1.4,0.1-6.6-0.9-7.7-2.7c-0.7-1.1-0.8-0.7-0.8,1.1c0,3.1-1.3,2.4-8.1,3c-4.7,0.4-6.1,1-6.1-0.4     c0-19,0-48.8,0-71.7c0-1.4,2.1-1.1,6.8-1.5c4.3-0.4,7.4-1,7.4,0.3C267.8,92.7,267.8,101.4,267.8,111z M275.1,131     c0-3.6,0.6-7.6-3.2-7.3c-3.7,0.3-3.2,4.3-3.2,7.8c0,2.1,0,0.6,0,4.6c0,3.6-0.5,7.6,3.2,7.3c3.8-0.3,3.2-4.3,3.2-7.8     C275.1,132,275.1,134.3,275.1,131z"></path>
			<path class="st0" d="M303.2,156.1c-7.6,0.7-7.6,0.6-7.6-0.9c0-26.4,0-21.8,0-47c0-1.9,0.1-1.9,7.6-2.6c8.2-0.7,8.2-0.6,8.2,1.3     c0,8.6,0,19.5,0,46.7C311.4,155.3,311.3,155.4,303.2,156.1z"></path>
			<path class="st0" d="M333.5,140c0,5.9,0,5.5,0,11.6c0,1.8-5,2.2-8.2,2.5c-2.7,0.2-7.6,0.6-7.6-0.9c0-26.4,0-45.1,0-70.4     c0-1.4,5.9-2,7.6-2.1c2-0.2,8.2-0.7,8.2,0.9c0,13,0,24.7,0,36.7c0,1.3,0.3,2.1,0.7,1.5c0.4-0.6,0.8-1.3,1.2-2.3     c1.6-5.6,2.3-8.4,3.9-13.9c0.2-0.8,3.6-1.4,6-1.6c2.5-0.2,10.1-0.9,9.7,0.2c-2.9,7.1-4.3,10.8-7.4,17.7c-0.4,1-0.9,2.1-0.9,2.8     c0,0.5,0.2,1.9,0.6,2.8c4.1,9.9,6,15.3,9.5,24.7c0.2,0.6-0.2,1.3-8.9,2c-3.4,0.3-6,0.3-6.4-0.9c-2.6-7.4-1.8-5.1-4.1-12.3     c-0.7-2.4-1.5-2.2-2.1-1.6C334.6,138,333.5,138.6,333.5,140z"></path>
			<path class="st0" d="M375.8,135.4c2.9-0.3,3.2-3.2,3.2-4.5c0-0.7,1.5-0.8,6.8-1.2c6.8-0.6,8.4-0.9,8.4,1.2     c0,10.8-7.4,17.9-18.4,18.9c-10.6,0.9-18.4-5.2-18.4-15.6c0-15.7,0-0.3,0-16c0-10.4,7.8-17.9,18.4-18.9c11-1,18.4,4.8,18.4,15.6     c0,5,0,6.8,0,8.9c0,1.4,0,1.5-2.2,1.7c-4.3,0.4-13.9,1.2-17.7,1.5c-1.2,0.1-1.7-0.1-1.7,1.7C372.6,132.3,372.2,135.8,375.8,135.4     z M375.8,111.6c-2,0.2-3.2,1.3-3.2,5.5c0,3.3,0.2,3.8,3.2,3.5c2.9-0.3,3.2-0.8,3.2-4.3C379,112.1,377.6,111.4,375.8,111.6z"></path>
		</g>
		<g>
			<path class="st0" d="M209.6,102c-21.4-0.3-38.9,17-38.9,38.3c0,0.4,0,0.7,0,1.1c4.3,0.6,10.2,1.2,16.3,1.3     c-0.3-8.9,4.8-19.6,14.1-23.6c5.4-2.3,11.7-3.1,17,0.1c4.6,2.8,8.1,8.3,6,13.6c-1.8,4.7-6.6,7.8-10.8,10.2     c-5.4,3.1-12.2,4.5-19.1,5.1c3.3,6,11.9,10,20.1,6.5c4.5-1.9,8-5.4,9.6-9.6c0.6-1.5,2.2-2.2,3.7-1.6c1.5,0.6,2.2,2.2,1.6,3.7     c-2.2,5.6-6.8,10.3-12.7,12.8c-2.7,1.1-5.5,1.7-8.4,1.7c-8.4,0-17.2-5-20-13.1c-6.1,0-12-0.5-16.7-1.1     c2.5,13.6,12.1,24.7,24.9,29.3l7.1,39.2c0.2,1.2,1.9,1.4,2.4,0.2l16-39.4c14.7-5.2,25.3-19,25.6-35.3     C247.8,120,230.7,102.3,209.6,102z"></path>
			<path class="st0" d="M218.6,130.3c0.6-2.7-1.7-5.4-4-6.5c-3.6-1.8-7.8-1-11.4,0.5c-6.8,2.9-10.9,11.4-10.6,18.2     c6.5-0.4,12.9-1.6,17.7-4.4C213.3,136.5,217.9,133.7,218.6,130.3z"></path>
		</g>
	</g>
	<path class="st0" d="M75.3,119.4c3.9-0.5,6.3-2.3,7.5-5.3c0.5-1.3,0.5-3.1,0.6-4.2c0-0.5-0.1-1.5-0.1-1.5c-0.5-5.1-3.4-7.7-8.4-7.4   c-6.6,0.4-8.1,5.4-8.3,9.4c0,0.5,0.1,1.5,0.1,1.5C67.2,117.1,69.4,120.1,75.3,119.4z"></path>
	<path class="st0" d="M303.6,100.5c3.9-0.5,6.3-2.3,7.5-5.3c0.5-1.3,0.5-3.1,0.6-4.2c0-0.5-0.1-1.5-0.1-1.5   c-0.5-5.1-3.4-7.7-8.4-7.4c-6.6,0.4-8.1,5.4-8.3,9.4c0,0.5,0.1,1.5,0.1,1.5C295.5,98.2,297.7,101.2,303.6,100.5z"></path>
</g>
<g>
</g>
<g>
</g>
<g>
</g>
<g>
</g>
<g>
</g>
<g>
</g>
</svg>
